# xmcd
#
# Track frame offsets:
#	150
#	17290
#	32948
#	50560
#	67968
#	88422
#	105804
#	113310
#	129266
#	148239
#	169650
#	182775
#	194605
#	207609
#	223714
#	239941
#	251904
#	267218
#	282005
#	297516
#
# Disc length: 4186 seconds
#
# Revision: 1
# Processed by: cddbd v1.5.2PL0 Copyright (c) Steve Scherf et al.
# Submitted via: audiograbber 1.83.01
#
DISCID=37105814
DTITLE=The Thompson Brothers - Old State Road
DYEAR=2008
DGENRE=Country
TTITLE0=Jenny's Barn
TTITLE1=Wicked Words
TTITLE2=Don't Do It
TTITLE3=September
TTITLE4=If You Believe
TTITLE5=Ramona
TTITLE6=Autumn In Tennessee
TTITLE7=Nobody Listens To A Fool
TTITLE8=Atlanta 1864
TTITLE9=The Truth
TTITLE10=To Not Be Me
TTITLE11=A Shot To Win
TTITLE12=Would You Be Gone
TTITLE13=Strong Enough To Let Go
TTITLE14=Natural
TTITLE15=Chance To Shine
TTITLE16=The Best Days
TTITLE17=Devil's Bone Yard
TTITLE18=Alright
TTITLE19=Halfway Right
EXTD=
EXTT0=
EXTT1=
EXTT2=
EXTT3=
EXTT4=
EXTT5=
EXTT6=
EXTT7=
EXTT8=
EXTT9=
EXTT10=
EXTT11=
EXTT12=
EXTT13=
EXTT14=
EXTT15=
EXTT16=
EXTT17=
EXTT18=
EXTT19=
PLAYORDER=
